<svg width="16" height="17" viewBox="0 0 16 17" fill="none" xmlns="http://www.w3.org/2000/svg">
<path d="M13 2.50001H10V1.5C10 0.947502 9.55248 0.5 8.99998 0.5H5.99999C5.44749 0.5 4.99999 0.947502 4.99999 1.5V2.50001H2C1.4475 2.50001 1 2.94751 1 3.50001V4.50001C1 5.052 1.4475 5.4995 1.999 5.50001H13.0005C13.5525 5.4995 14 5.052 14 4.50001V3.49999C14 2.94751 13.5525 2.50001 13 2.50001ZM8.99998 2.50001H5.99999V1.99999C5.99999 1.724 6.22399 1.49998 6.49998 1.49998H8.49999C8.77598 1.49998 8.99998 1.72398 8.99998 1.99999V2.50001ZM1.99998 14.5C1.99998 15.6045 2.89547 16.5 3.99999 16.5H11C12.1045 16.5 13 15.6045 13 14.5V6.5H1.99998V14.5ZM9.50001 8.00001C9.50001 7.72401 9.72401 7.5 10 7.5C10.276 7.5 10.5 7.72399 10.5 8.00001V14C10.5 14.276 10.276 14.5 10 14.5C9.72401 14.5 9.50001 14.276 9.50001 14V8.00001ZM7 8.00001C7 7.72401 7.22399 7.5 7.50001 7.5C7.77602 7.5 8 7.72399 8 8.00001V14C8 14.276 7.776 14.5 7.50001 14.5C7.22401 14.5 7 14.276 7 14V8.00001ZM4.49998 8.00001C4.49998 7.72401 4.72397 7.5 4.99999 7.5C5.27601 7.5 5.5 7.72399 5.5 8.00001V14C5.5 14.276 5.27601 14.5 4.99999 14.5C4.72397 14.5 4.49998 14.276 4.49998 14V8.00001Z" fill="white"/>
</svg>
