<svg width="16" height="16" viewBox="0 0 16 16" fill="none" xmlns="http://www.w3.org/2000/svg">
<path d="M15.777 1.65121L14.3457 0.221844C14.1979 0.0740571 14.0036 0 13.8096 0C13.6156 0 13.4216 0.0737293 13.2738 0.221516L12.1289 1.36317L14.6321 3.86211L15.777 2.72078C16.0729 2.4252 16.0729 1.9458 15.777 1.65121Z" fill="white"/>
<path d="M4.69922 8.78181L7.20274 11.2811L14.0989 4.3977L11.5954 1.89844L4.69922 8.78181Z" fill="white"/>
<path d="M4.15555 9.31641L3.62109 12.3482L6.65907 11.8153L4.15555 9.31641Z" fill="white"/>
<path d="M11.0781 13.6988H1.63876V4.25952H8.30029L9.94199 2.62109H1.05974C0.476783 2.62109 0 3.09788 0 3.68083V14.2779C0 14.8608 0.476783 15.3376 1.05974 15.3376H11.6568C12.2397 15.3376 12.7165 14.8608 12.7165 14.2779V6.70144L11.0781 8.33692V13.6988Z" fill="white"/>
</svg>
