<svg width="17" height="16" viewBox="0 0 17 16" fill="none" xmlns="http://www.w3.org/2000/svg">
<path d="M16.277 1.65121L14.8457 0.221844C14.6979 0.0740571 14.5036 0 14.3096 0C14.1156 0 13.9216 0.0737293 13.7738 0.221516L12.6289 1.36317L15.1321 3.86211L16.277 2.72078C16.5729 2.4252 16.5729 1.9458 16.277 1.65121Z" fill="white"/>
<path d="M5.19922 8.78181L7.70274 11.2811L14.5989 4.3977L12.0954 1.89844L5.19922 8.78181Z" fill="white"/>
<path d="M4.65555 9.31641L4.12109 12.3482L7.15907 11.8153L4.65555 9.31641Z" fill="white"/>
<path d="M11.5781 13.6988H2.13876V4.25952H8.80029L10.442 2.62109H1.55974C0.976783 2.62109 0.5 3.09788 0.5 3.68083V14.2779C0.5 14.8608 0.976783 15.3376 1.55974 15.3376H12.1568C12.7397 15.3376 13.2165 14.8608 13.2165 14.2779V6.70144L11.5781 8.33692V13.6988Z" fill="white"/>
</svg>
