<svg width="22" height="22" viewBox="0 0 22 22" fill="none" xmlns="http://www.w3.org/2000/svg">
<path d="M21.8926 11.4015C21.6499 12.0483 21.0486 12.4663 20.36 12.4663H19.7998V20.5326C19.7998 20.9374 19.4712 21.2659 19.0665 21.2659H14.6667V16.1328C14.6667 14.1111 13.0219 12.4663 11.0002 12.4663C8.97845 12.4663 7.33365 14.1111 7.33365 16.1328V21.2659H2.93385C2.52907 21.2659 2.20055 20.9374 2.20055 20.5326V12.4663H1.63957C0.951003 12.4663 0.349697 12.049 0.106975 11.4022C-0.135748 10.7555 0.0424441 10.0442 0.561621 9.591L9.12584 1.48069C10.1774 0.485603 11.8237 0.485603 12.8745 1.48069L21.4592 9.61006C21.9564 10.0434 22.1353 10.7547 21.8926 11.4015Z" fill="white"/>
</svg>
