<svg width="25" height="24" viewBox="0 0 25 24" fill="none" xmlns="http://www.w3.org/2000/svg">
<g clip-path="url(#clip0_1867_14264)">
<path d="M15.1654 17.2837C15.0815 17.2475 15.01 17.1874 14.9598 17.1108C14.9096 17.0341 14.8828 16.9444 14.8829 16.8527C14.8823 16.7872 14.8951 16.7222 14.9206 16.6619C14.946 16.6015 14.9835 16.547 15.0308 16.5019C15.0597 16.4743 15.0873 16.447 15.108 16.4251C15.2543 16.2704 15.3833 16.1002 15.4929 15.9173C15.7811 15.4343 15.9239 14.8779 15.9042 14.3151C15.8845 13.7523 15.7031 13.2073 15.3819 12.7458C15.0606 12.2843 14.6133 11.9261 14.0938 11.7143C13.5743 11.5025 13.0049 11.4462 12.4543 11.5522C11.8932 11.6509 11.3746 11.9168 10.9661 12.3155C10.5575 12.7142 10.2778 13.2271 10.1633 13.7876C10.0575 14.2702 10.0755 14.7718 10.2156 15.2455C10.3557 15.7192 10.6133 16.1494 10.9643 16.4958C11.0119 16.5411 11.05 16.5955 11.0764 16.6559C11.1028 16.7162 11.1169 16.7813 11.1179 16.8472V16.8496C11.1188 16.9421 11.0924 17.0327 11.0422 17.1102C10.9919 17.1877 10.92 17.2486 10.8354 17.2852C9.67806 17.7667 8.7551 18.6853 8.26515 19.8434C7.92071 20.6364 7.74793 21.494 7.75825 22.3591V22.9826C7.75825 23.1162 7.78447 23.2486 7.83542 23.3721C7.88637 23.4957 7.96104 23.6079 8.05518 23.7024C8.14932 23.7969 8.26107 23.8719 8.38406 23.923C8.50705 23.9742 8.63886 24.0004 8.77197 24.0004H17.2313C17.5 24.0004 17.7577 23.8931 17.9478 23.7023C18.1378 23.5114 18.2445 23.2526 18.2445 22.9826V22.3529C18.2548 21.4881 18.0817 20.631 17.7368 19.8385C17.2459 18.6815 16.3226 17.7641 15.1654 17.2837Z" fill="#F0F4F7"/>
<path d="M9.68184 16.6575C9.30114 16.331 8.87097 16.0676 8.40759 15.8774C8.32373 15.8411 8.25228 15.7809 8.20207 15.7043C8.15187 15.6277 8.12511 15.538 8.1251 15.4463C8.12452 15.3808 8.13736 15.3158 8.16283 15.2554C8.1883 15.1951 8.22585 15.1406 8.27315 15.0955C8.30188 15.0678 8.32957 15.0406 8.35026 15.0187C8.49654 14.8641 8.62559 14.6939 8.73513 14.5112C9.02336 14.0281 9.16626 13.4717 9.14659 12.9089C9.12692 12.3461 8.94551 11.8011 8.62427 11.3396C8.30302 10.8781 7.85566 10.5198 7.33617 10.308C6.81669 10.0962 6.24727 10.0399 5.69664 10.1459C5.13553 10.2446 4.61696 10.5106 4.20836 10.9092C3.79977 11.3079 3.52006 11.8209 3.40561 12.3813C3.29985 12.8639 3.31786 13.3656 3.45795 13.8393C3.59804 14.313 3.85563 14.7432 4.20655 15.0895C4.25419 15.1349 4.29232 15.1893 4.31871 15.2496C4.3451 15.31 4.35921 15.375 4.36021 15.4409V15.4434C4.36108 15.5359 4.33473 15.6266 4.28447 15.7041C4.23421 15.7816 4.16228 15.8424 4.07771 15.879C2.92034 16.3605 1.99739 17.2791 1.50741 18.4371C1.16295 19.2302 0.990146 20.0877 1.00043 20.9529V21.5766C1.00043 21.7103 1.02663 21.8426 1.07755 21.9661C1.12847 22.0895 1.2031 22.2017 1.29719 22.2962C1.39128 22.3907 1.50298 22.4657 1.62592 22.5168C1.74885 22.568 1.88061 22.5943 2.01367 22.5943H6.68295V22.3588C6.67134 21.3405 6.87655 20.3314 7.28482 19.3992C7.77477 18.2535 8.61405 17.2935 9.68184 16.6575Z" fill="#F0F4F7"/>
<path d="M24.4927 18.4321C24.0019 17.2751 23.0787 16.3578 21.9215 15.8774C21.8377 15.8411 21.7662 15.7809 21.716 15.7043C21.6658 15.6277 21.6391 15.538 21.639 15.4463C21.6385 15.3808 21.6513 15.3158 21.6768 15.2554C21.7022 15.1951 21.7397 15.1406 21.787 15.0954C21.8159 15.0678 21.8436 15.0406 21.8641 15.0187C22.0105 14.8641 22.1396 14.6939 22.2491 14.5111C22.5373 14.0281 22.6802 13.4717 22.6605 12.9089C22.6409 12.3461 22.4594 11.8011 22.1382 11.3396C21.817 10.8781 21.3696 10.5198 20.8501 10.308C20.3306 10.0962 19.7612 10.0399 19.2106 10.1459C18.6495 10.2446 18.1309 10.5105 17.7223 10.9092C17.3137 11.3079 17.034 11.8208 16.9196 12.3813C16.8138 12.8639 16.8318 13.3656 16.9719 13.8393C17.112 14.313 17.3696 14.7432 17.7205 15.0895C17.7681 15.1349 17.8063 15.1893 17.8326 15.2496C17.859 15.31 17.8731 15.375 17.8742 15.4409V15.4434C17.875 15.5359 17.8487 15.6266 17.7984 15.7041C17.7482 15.7816 17.6762 15.8424 17.5917 15.879C17.1294 16.0692 16.7003 16.332 16.3203 16.6577C17.3864 17.2926 18.2247 18.2504 18.7151 19.3936C19.1243 20.3254 19.33 21.3344 19.3183 22.3528V22.5943H23.9872C24.2559 22.5943 24.5136 22.4871 24.7037 22.2962C24.8937 22.1054 25.0005 21.8465 25.0005 21.5766V20.9466C25.0108 20.0817 24.8377 19.2245 24.4927 18.4321Z" fill="#F0F4F7"/>
<path d="M8.03716 6.02331L9.00497 6.20574C9.09561 6.22212 9.18039 6.26212 9.25083 6.32173C9.32127 6.38134 9.37489 6.45847 9.40635 6.54542C9.4505 6.67121 9.50125 6.79456 9.55838 6.91496C9.5972 6.99872 9.61349 7.09123 9.60561 7.18329C9.59774 7.27534 9.56598 7.36371 9.5135 7.43959L8.95778 8.25555C8.91267 8.32173 8.89202 8.40167 8.89942 8.48153C8.90682 8.56139 8.94179 8.63613 8.99828 8.69282L9.58885 9.28603C9.64529 9.34278 9.71972 9.37791 9.79924 9.38534C9.87876 9.39277 9.95836 9.37203 10.0243 9.32671L10.8366 8.76855C10.9122 8.71584 11.0001 8.68394 11.0918 8.67604C11.1834 8.66813 11.2756 8.6845 11.3589 8.72351C11.4788 8.78083 11.6017 8.83179 11.7269 8.87617C11.8135 8.90774 11.8903 8.96159 11.9496 9.03234C12.009 9.10309 12.0488 9.18825 12.0651 9.27931L12.2467 10.2514C12.2614 10.3302 12.3031 10.4014 12.3646 10.4526C12.426 10.5038 12.5034 10.5319 12.5832 10.5318H13.4186C13.4985 10.5319 13.5759 10.5039 13.6373 10.4526C13.6988 10.4014 13.7405 10.3302 13.7552 10.2514L13.9368 9.27931C13.9531 9.18826 13.9929 9.1031 14.0523 9.03235C14.1116 8.96161 14.1884 8.90775 14.275 8.87617C14.4002 8.83178 14.5231 8.78081 14.643 8.72347C14.7263 8.68448 14.8184 8.66812 14.9101 8.67603C15.0017 8.68394 15.0897 8.71584 15.1653 8.76855L15.9776 9.32671C16.0436 9.372 16.1232 9.39272 16.2027 9.38529C16.2822 9.37786 16.3566 9.34275 16.4131 9.28603L17.0035 8.6929C17.06 8.63621 17.095 8.56147 17.1024 8.48161C17.1098 8.40175 17.0891 8.32181 17.044 8.25563L16.4883 7.43967C16.4358 7.3638 16.4041 7.27543 16.3962 7.18339C16.3883 7.09134 16.4046 6.99883 16.4434 6.91508C16.5006 6.79466 16.5513 6.67129 16.5955 6.5455C16.6269 6.45855 16.6806 6.38142 16.751 6.32181C16.8214 6.2622 16.9062 6.2222 16.9969 6.20582L17.9646 6.02339C18.0431 6.00864 18.114 5.96678 18.165 5.90506C18.216 5.84333 18.2439 5.76564 18.2439 5.68542V4.84648C18.2439 4.76627 18.216 4.68857 18.165 4.62685C18.114 4.56513 18.0431 4.52327 17.9646 4.50852L16.9969 4.32613C16.9062 4.30974 16.8214 4.26975 16.751 4.21014C16.6806 4.15053 16.6269 4.07339 16.5955 3.98645C16.5513 3.86065 16.5006 3.73728 16.4434 3.61687C16.4046 3.53311 16.3883 3.44059 16.3962 3.34854C16.4041 3.25649 16.4358 3.16812 16.4883 3.09224L17.044 2.27628C17.0892 2.21009 17.1098 2.13012 17.1024 2.05023C17.095 1.97035 17.0601 1.89558 17.0035 1.83889L16.413 1.24576C16.3565 1.18899 16.2821 1.15385 16.2025 1.14642C16.123 1.13899 16.0434 1.15974 15.9775 1.20508L15.1651 1.76324C15.0896 1.81595 15.0016 1.84785 14.9099 1.85575C14.8183 1.86365 14.7262 1.84728 14.6428 1.80828C14.5229 1.75095 14.4001 1.69999 14.2748 1.65562C14.1883 1.62403 14.1115 1.57018 14.0521 1.49943C13.9928 1.42868 13.9529 1.34352 13.9366 1.25247L13.755 0.280339C13.7403 0.201563 13.6986 0.130438 13.6372 0.0792519C13.5757 0.0280658 13.4984 3.40955e-05 13.4186 3.62183e-08H12.5831C12.5032 -3.67677e-05 12.4259 0.0279768 12.3644 0.0791891C12.303 0.130401 12.2613 0.201588 12.2466 0.280419L12.0651 1.25255C12.0487 1.3436 12.0089 1.42874 11.9496 1.49949C11.8902 1.57023 11.8134 1.62409 11.7269 1.6557C11.6016 1.70005 11.4788 1.751 11.3589 1.80836C11.2755 1.84736 11.1834 1.86373 11.0917 1.85583C11.0001 1.84793 10.9121 1.81603 10.8366 1.76332L10.0243 1.20508C9.95837 1.15975 9.87877 1.139 9.79925 1.14641C9.71974 1.15383 9.6453 1.18894 9.58885 1.24568L8.9982 1.83885C8.94169 1.89554 8.90671 1.9703 8.89931 2.05018C8.89191 2.13005 8.91257 2.21001 8.9577 2.2762L9.51342 3.09216C9.5659 3.16804 9.59766 3.25641 9.60553 3.34846C9.61341 3.44051 9.59712 3.53303 9.5583 3.61679C9.50117 3.7372 9.45042 3.86057 9.40627 3.98637C9.37482 4.07332 9.3212 4.15046 9.25076 4.21007C9.18032 4.26968 9.09554 4.30967 9.00489 4.32605L8.03708 4.50848C7.9586 4.52327 7.88774 4.56514 7.83674 4.62686C7.78574 4.68857 7.75783 4.76624 7.75781 4.84644V5.6853C7.75777 5.76553 7.78568 5.84325 7.8367 5.90498C7.88772 5.96672 7.95864 6.00858 8.03716 6.02331ZM13.0009 3.31411C13.3852 3.31411 13.7609 3.42858 14.0805 3.64304C14.4 3.85751 14.6491 4.16233 14.7962 4.51897C14.9433 4.87561 14.9818 5.26805 14.9068 5.64665C14.8318 6.02526 14.6467 6.37303 14.375 6.646C14.1032 6.91896 13.7569 7.10485 13.38 7.18017C13.0031 7.25548 12.6123 7.21684 12.2572 7.06912C11.9022 6.9214 11.5987 6.67124 11.3851 6.35027C11.1716 6.02931 11.0576 5.65196 11.0576 5.26593C11.0576 4.74829 11.2624 4.25185 11.6268 3.88581C11.9912 3.51978 12.4855 3.31413 13.0009 3.31411Z" fill="#F0F4F7"/>
</g>
<defs>
<clipPath id="clip0_1867_14264">
<rect width="24" height="24" fill="white" transform="translate(0.625)"/>
</clipPath>
</defs>
</svg>
