<svg width="25" height="24" viewBox="0 0 25 24" fill="none" xmlns="http://www.w3.org/2000/svg">
<path d="M16.9333 21.2L14 18L15.2373 16.7627L16.9333 18.4587L20.7627 14.6293L22 16.1333M12.4533 21.2H4.13333C2.94933 21.2 2 20.24 2 19.0667V4.13333C2 2.94933 2.94933 2 4.13333 2H19.0667C19.6325 2 20.1751 2.22476 20.5752 2.62484C20.9752 3.02492 21.2 3.56754 21.2 4.13333V12.4533C20.2613 11.9093 19.1627 11.6 18 11.6L16.9333 11.6853V10.5333H6.26667V12.6667H14.4693C12.7413 13.808 11.6 15.7707 11.6 18C11.6 19.1627 11.9093 20.2613 12.4533 21.2ZM11.6 14.8H6.26667V16.9333H11.6M16.9333 6.26667H6.26667V8.4H16.9333" fill="white"/>
</svg>
