<svg width="18" height="19" viewBox="0 0 18 19" fill="none" xmlns="http://www.w3.org/2000/svg">
<path d="M16.5875 8.595C16.3975 8.595 16.2075 8.525 16.0575 8.375L9.5375 1.855C9.0575 1.375 8.2775 1.375 7.7975 1.855L1.2775 8.375C0.9875 8.665 0.5075 8.665 0.2175 8.375C-0.0725 8.085 -0.0725 7.605 0.2175 7.315L6.7375 0.795C7.7975 -0.265 9.5275 -0.265 10.5975 0.795L17.1175 7.315C17.4075 7.605 17.4075 8.085 17.1175 8.375C16.9675 8.515 16.7775 8.595 16.5875 8.595Z" fill="#FF0000"/>
<path d="M16.5875 13.595C16.3975 13.595 16.2075 13.525 16.0575 13.375L9.5375 6.855C9.0575 6.375 8.2775 6.375 7.7975 6.855L1.2775 13.375C0.9875 13.665 0.5075 13.665 0.2175 13.375C-0.0725 13.085 -0.0725 12.605 0.2175 12.315L6.7375 5.795C7.7975 4.735 9.5275 4.735 10.5975 5.795L17.1175 12.315C17.4075 12.605 17.4075 13.085 17.1175 13.375C16.9675 13.515 16.7775 13.595 16.5875 13.595Z" fill="#FF0000"/>
<path d="M16.5875 18.595C16.3975 18.595 16.2075 18.525 16.0575 18.375L9.5375 11.855C9.0575 11.375 8.2775 11.375 7.7975 11.855L1.2775 18.375C0.9875 18.665 0.5075 18.665 0.2175 18.375C-0.0725 18.085 -0.0725 17.605 0.2175 17.315L6.7375 10.795C7.7975 9.735 9.5275 9.735 10.5975 10.795L17.1175 17.315C17.4075 17.605 17.4075 18.085 17.1175 18.375C16.9675 18.515 16.7775 18.595 16.5875 18.595Z" fill="#FF0000"/>
</svg>
